<svg width="154" height="154" viewBox="0 0 154 154" fill="none" xmlns="http://www.w3.org/2000/svg">
  <circle cx="76.8695" cy="76.8695" r="76.8695" fill="#8E91F3"/>
  <circle cx="75.161" cy="78.5777" r="64.912" fill="#6367D9"/>
  <path d="M74.2183 38.6757C84.4858 38.6757 92.6806 41.8325 98.8029 48.146C104.989 54.3958 108.082 62.2718 108.082 71.774C108.082 81.2125 105.627 89.1522 100.716 95.5933C95.8693 101.971 89.1731 105.765 80.6275 106.977C82.5407 107.423 85.9526 108.762 90.8631 110.995C95.8374 113.227 100.365 114.343 104.447 114.343C108.528 114.343 112.45 113.067 116.213 110.516L117.361 111.76C115.193 114.119 112.833 115.969 110.282 117.308C107.795 118.711 104.829 119.413 101.386 119.413C98.0057 119.413 94.4344 118.552 90.6718 116.83C86.9729 115.108 83.1784 113.386 79.2883 111.664C75.3981 109.942 72.1775 109.081 69.6266 109.081C67.0757 109.081 64.748 109.432 62.6434 110.134L62.1651 108.22C63.3768 107.646 65.3857 107.2 68.1917 106.881C59.8374 105.414 53.205 101.524 48.2945 95.2107C43.3839 88.8334 40.9287 80.9574 40.9287 71.5827C40.9287 62.1443 43.8941 54.3002 49.825 48.0504C55.8197 41.8006 63.9508 38.6757 74.2183 38.6757ZM74.7922 105.255C82.9552 105.255 89.1412 102.321 93.3503 96.4543C97.6231 90.5233 99.7595 82.743 99.7595 73.1133C99.7595 63.4835 97.5274 55.7032 93.0633 49.7722C88.5992 43.8413 82.2856 40.8759 74.1226 40.8759C66.0234 40.8759 59.8374 43.8095 55.5646 49.6766C51.3556 55.5437 49.2511 63.3241 49.2511 73.0176C49.2511 82.6473 51.4831 90.4277 55.9473 96.3586C60.4114 102.29 66.693 105.255 74.7922 105.255Z" fill="white"/>
</svg>