<svg width="134" height="150" viewBox="0 0 134 150" fill="none" xmlns="http://www.w3.org/2000/svg">
  <path d="M121.76 1H12.24C6.03232 1 1 6.03232 1 12.24V137.76C1 143.968 6.03232 149 12.24 149H121.76C127.968 149 133 143.968 133 137.76V12.24C133 6.03232 127.968 1 121.76 1Z" fill="#8E91F3" stroke="#8E91F3" stroke-width="1.75" stroke-linecap="round" stroke-linejoin="round"/>
  <path d="M108.279 13.75H25.1135C18.9067 13.75 13.875 18.7817 13.875 24.9885V125.011C13.875 131.218 18.9067 136.25 25.1135 136.25H108.279C114.486 136.25 119.517 131.218 119.517 125.011V24.9885C119.517 18.7817 114.486 13.75 108.279 13.75Z" fill="#6367D9" stroke="#6367D9" stroke-width="2.24771" stroke-linecap="round" stroke-linejoin="round"/>
  <line x1="35.2285" y1="48.5895" x2="98.1643" y2="48.5895" stroke="#F8E8EE" stroke-width="2.24771"/>
  <line x1="35.2285" y1="59.828" x2="98.1643" y2="59.828" stroke="#F8E8EE" stroke-width="2.24771"/>
  <line x1="35.2285" y1="71.0665" x2="98.1643" y2="71.0665" stroke="#F8E8EE" stroke-width="2.24771"/>
  <line x1="35.2285" y1="82.3051" x2="98.1643" y2="82.3051" stroke="#F8E8EE" stroke-width="2.24771"/>
  <line x1="35.2285" y1="93.5436" x2="98.1643" y2="93.5436" stroke="#F8E8EE" stroke-width="2.24771"/>
</svg>