<svg width="211" height="124" viewBox="0 0 211 124" fill="none" xmlns="http://www.w3.org/2000/svg">
<rect x="10.0571" y="1.05714" width="190.286" height="71.8857" fill="#F8E8EE"/>
<rect x="10.0571" y="1.05714" width="190.286" height="71.8857" stroke="#6367D9" stroke-width="2.11429"/>
<g clip-path="url(#clip0_411_70)">
<rect x="17.457" y="8.45714" width="175.486" height="57.0857" fill="#6367D9"/>
<path d="M59.053 37.3766C59.053 32.9443 57.7247 29.5237 55.0681 27.1148C52.4252 24.706 48.8739 23.5016 44.4141 23.5016H38.5089V51.6232C38.9907 51.6507 39.4656 51.6714 39.9336 51.6852C40.4016 51.6989 40.8696 51.7058 41.3376 51.7058C46.5545 51.7058 50.8078 50.6528 54.0977 48.5468C57.4012 46.4407 59.053 42.7173 59.053 37.3766ZM64.0497 37.3766C64.0497 43.1853 62.1363 47.6176 58.3097 50.6734C54.4831 53.7292 49.6585 55.2571 43.8359 55.2571H28.1853C27.7035 55.2571 27.325 55.0851 27.0497 54.741C26.7881 54.3831 26.6574 53.977 26.6574 53.5228C26.6574 53.0135 26.7744 52.573 27.0084 52.2013C27.2424 51.8159 27.6209 51.6232 28.144 51.6232H33.6775V23.5016H29.486C28.963 23.5016 28.5844 23.3157 28.3504 22.9441C28.1302 22.5587 28.0201 22.1113 28.0201 21.602C28.0201 21.1478 28.1509 20.7486 28.4124 20.4045C28.6877 20.0466 29.0662 19.8676 29.548 19.8676H43.8359C49.7824 19.8676 54.6345 21.3198 58.3923 24.2242C62.1639 27.1148 64.0497 31.499 64.0497 37.3766ZM85.5848 55.7733C80.2028 55.7733 75.798 54.1284 72.3705 50.8386C68.9431 47.535 67.2294 43.1578 67.2294 37.7069C67.2294 32.2423 68.9431 27.8169 72.3705 24.4307C75.798 21.0445 80.2028 19.3515 85.5848 19.3515C91.0357 19.3515 95.4818 21.0445 98.923 24.4307C102.378 27.8169 104.105 32.2423 104.105 37.7069C104.105 43.1578 102.371 47.535 98.9023 50.8386C95.4474 54.1284 91.0082 55.7733 85.5848 55.7733ZM85.399 23.2538C81.2971 23.2538 78.1036 24.6234 75.8186 27.3626C73.5337 30.0881 72.3912 33.5362 72.3912 37.7069C72.3912 41.8777 73.5612 45.2845 75.9012 47.9273C78.255 50.5564 81.5379 51.871 85.75 51.871C89.8657 51.871 93.1004 50.5702 95.4542 47.9686C97.808 45.3671 98.9849 41.9603 98.9849 37.7482C98.9849 33.4949 97.7736 30.0192 95.351 27.3213C92.9421 24.6096 89.6248 23.2538 85.399 23.2538ZM143.666 21.602C143.666 22.1113 143.549 22.5587 143.315 22.9441C143.094 23.3157 142.723 23.5016 142.2 23.5016H138.69L127.313 54.6584C127.079 55.1952 126.831 55.6081 126.57 55.8972C126.322 56.2 125.923 56.3514 125.372 56.3514C124.835 56.3514 124.422 56.1932 124.133 55.8766C123.858 55.56 123.631 55.1539 123.452 54.6584L111.91 23.5016H107.554C107.031 23.5016 106.652 23.3157 106.418 22.9441C106.198 22.5587 106.088 22.1113 106.088 21.602C106.088 21.1478 106.218 20.7486 106.48 20.4045C106.741 20.0466 107.113 19.8676 107.595 19.8676H120.293C120.775 19.8676 121.146 20.0466 121.408 20.4045C121.683 20.7486 121.821 21.1478 121.821 21.602C121.821 22.1113 121.704 22.5587 121.47 22.9441C121.236 23.3157 120.857 23.5016 120.334 23.5016H116.989L125.95 48.4022L134.457 23.5016H131.112C130.589 23.5016 130.211 23.3157 129.977 22.9441C129.743 22.5587 129.626 22.1113 129.626 21.602C129.626 21.1478 129.756 20.7486 130.018 20.4045C130.293 20.0466 130.672 19.8676 131.153 19.8676H142.158C142.64 19.8676 143.012 20.0466 143.273 20.4045C143.535 20.7486 143.666 21.1478 143.666 21.602ZM167.988 41.857C167.988 42.3388 167.864 42.738 167.617 43.0546C167.369 43.3574 167.011 43.5088 166.543 43.5088C166.116 43.5088 165.758 43.3712 165.469 43.0959C165.194 42.8206 165.001 42.4902 164.891 42.1048L163.838 38.2644H156.942V51.6232H175.174L177.569 44.8096C177.761 44.3829 178.03 44.0181 178.374 43.7153C178.718 43.3987 179.158 43.2404 179.695 43.2404C180.15 43.2404 180.514 43.378 180.79 43.6533C181.065 43.9286 181.203 44.3003 181.203 44.7683C181.203 44.906 181.189 45.0436 181.161 45.1812C181.148 45.3189 181.12 45.4497 181.079 45.5735L179.778 53.6467C179.64 54.1422 179.448 54.5345 179.2 54.8235C178.952 55.1126 178.58 55.2571 178.085 55.2571H146.288C145.806 55.2571 145.428 55.0851 145.152 54.741C144.891 54.3831 144.76 53.977 144.76 53.5228C144.76 53.0135 144.877 52.573 145.111 52.2013C145.345 51.8159 145.724 51.6232 146.247 51.6232H152.131V23.5016H148.353C147.83 23.5016 147.451 23.3157 147.217 22.9441C146.997 22.5587 146.887 22.1113 146.887 21.602C146.887 21.1478 147.017 20.7486 147.279 20.4045C147.541 20.0466 147.912 19.8676 148.394 19.8676H177.238C177.734 19.8676 178.099 20.019 178.333 20.3219C178.567 20.6109 178.766 20.9964 178.931 21.4781L180.914 28.0233C180.955 28.1747 180.982 28.3193 180.996 28.4569C181.024 28.5946 181.037 28.7185 181.037 28.8286C181.037 29.2828 180.893 29.6545 180.604 29.9435C180.328 30.2188 179.971 30.3565 179.53 30.3565C179.021 30.3565 178.58 30.2051 178.209 29.9022C177.851 29.5856 177.582 29.214 177.403 28.7873L175.174 23.5016H156.942V35.2912H163.838L164.891 31.4508C165.001 31.0654 165.194 30.735 165.469 30.4597C165.758 30.1844 166.116 30.0468 166.543 30.0468C167.011 30.0468 167.369 30.2051 167.617 30.5217C167.864 30.8245 167.988 31.2168 167.988 31.6985L167.679 36.6952L167.988 41.857Z" fill="#F8E8EE"/>
</g>
<rect x="16.3999" y="7.4" width="177.6" height="59.2" stroke="#6367D9" stroke-width="2.11429"/>
<path d="M1.2 120V108.8H2.192V120H1.2ZM4.59063 120V108.752H5.53463L11.9186 118.384V108.8H12.8466V120.016H11.8866L5.51863 110.432V120H4.59063ZM21.8069 109.12L21.5829 109.92C21.4015 109.856 21.1935 109.797 20.9589 109.744C20.7242 109.691 20.4789 109.643 20.2229 109.6C19.9669 109.557 19.7055 109.525 19.4389 109.504C19.1829 109.483 18.9429 109.472 18.7189 109.472C17.8442 109.472 17.1455 109.653 16.6229 110.016C16.1002 110.379 15.8389 110.869 15.8389 111.488C15.8389 111.765 15.8922 112.016 15.9989 112.24C16.1055 112.453 16.2762 112.661 16.5109 112.864C16.7562 113.056 17.0815 113.248 17.4869 113.44C17.8922 113.621 18.3882 113.813 18.9749 114.016C19.6042 114.229 20.1322 114.448 20.5589 114.672C20.9962 114.885 21.3482 115.115 21.6149 115.36C21.8815 115.605 22.0735 115.883 22.1909 116.192C22.3082 116.501 22.3669 116.848 22.3669 117.232C22.3669 117.851 22.2015 118.379 21.8709 118.816C21.5509 119.253 21.0815 119.589 20.4629 119.824C19.8549 120.048 19.1135 120.16 18.2389 120.16C17.9615 120.16 17.6469 120.144 17.2949 120.112C16.9535 120.08 16.6069 120.037 16.2549 119.984C15.9135 119.92 15.5829 119.851 15.2629 119.776C14.9535 119.701 14.6869 119.621 14.4629 119.536L14.7029 118.72C14.9269 118.805 15.1882 118.885 15.4869 118.96C15.7962 119.035 16.1109 119.099 16.4309 119.152C16.7615 119.205 17.0869 119.248 17.4069 119.28C17.7269 119.312 18.0202 119.328 18.2869 119.328C18.9375 119.328 19.4869 119.253 19.9349 119.104C20.3935 118.944 20.7402 118.715 20.9749 118.416C21.2202 118.107 21.3429 117.739 21.3429 117.312C21.3429 117.024 21.2789 116.768 21.1509 116.544C21.0335 116.309 20.8469 116.096 20.5909 115.904C20.3349 115.712 19.9989 115.525 19.5829 115.344C19.1669 115.152 18.6602 114.955 18.0629 114.752C17.4655 114.539 16.9589 114.325 16.5429 114.112C16.1269 113.888 15.7909 113.653 15.5349 113.408C15.2789 113.152 15.0922 112.875 14.9749 112.576C14.8575 112.267 14.7989 111.92 14.7989 111.536C14.7989 111.109 14.8842 110.72 15.0549 110.368C15.2362 110.005 15.4922 109.696 15.8229 109.44C16.1642 109.184 16.5749 108.987 17.0549 108.848C17.5455 108.709 18.1002 108.64 18.7189 108.64C19.0602 108.64 19.4229 108.661 19.8069 108.704C20.2015 108.747 20.5749 108.805 20.9269 108.88C21.2789 108.955 21.5722 109.035 21.8069 109.12ZM23.8358 116.688V108.8H24.8278V116.704C24.8278 117.131 24.8864 117.499 25.0038 117.808C25.1211 118.107 25.2864 118.357 25.4998 118.56C25.7131 118.752 25.9531 118.901 26.2198 119.008C26.4971 119.115 26.7904 119.195 27.0998 119.248C27.4091 119.291 27.7131 119.312 28.0118 119.312C28.3318 119.312 28.6411 119.291 28.9398 119.248C29.2491 119.195 29.5371 119.115 29.8038 119.008C30.0704 118.891 30.3104 118.736 30.5238 118.544C30.7371 118.341 30.9024 118.091 31.0198 117.792C31.1371 117.493 31.1958 117.131 31.1958 116.704V108.8H32.1878V116.688C32.1878 117.243 32.1131 117.717 31.9638 118.112C31.8251 118.507 31.6224 118.837 31.3558 119.104C31.0891 119.371 30.7798 119.584 30.4278 119.744C30.0758 119.893 29.6918 120 29.2758 120.064C28.8704 120.128 28.4491 120.16 28.0118 120.16C27.5744 120.16 27.1531 120.128 26.7478 120.064C26.3424 120 25.9584 119.893 25.5958 119.744C25.2438 119.584 24.9344 119.371 24.6678 119.104C24.4118 118.837 24.2091 118.507 24.0598 118.112C23.9104 117.717 23.8358 117.243 23.8358 116.688ZM42.9155 120.16C42.6702 120.16 42.4142 120.107 42.1475 120C41.8915 119.893 41.6248 119.728 41.3475 119.504C41.0702 119.28 40.7768 118.987 40.4675 118.624C40.1688 118.251 39.8542 117.803 39.5235 117.28C39.1928 116.757 38.8355 116.144 38.4515 115.44C38.3342 115.451 38.1955 115.461 38.0355 115.472C37.8755 115.472 37.7315 115.472 37.6035 115.472C37.2515 115.472 36.8888 115.467 36.5155 115.456C36.1422 115.445 35.7688 115.435 35.3955 115.424V120H34.3875V108.768C34.8248 108.736 35.2195 108.709 35.5715 108.688C35.9235 108.667 36.2648 108.656 36.5955 108.656C36.9262 108.645 37.2675 108.64 37.6195 108.64C38.4195 108.64 39.1022 108.699 39.6675 108.816C40.2328 108.923 40.6915 109.099 41.0435 109.344C41.3955 109.589 41.6515 109.92 41.8115 110.336C41.9715 110.741 42.0515 111.248 42.0515 111.856C42.0515 112.539 41.9502 113.109 41.7475 113.568C41.5555 114.016 41.2675 114.373 40.8835 114.64C40.4995 114.896 40.0195 115.083 39.4435 115.2C39.8488 115.947 40.2222 116.576 40.5635 117.088C40.9155 117.589 41.2355 117.995 41.5235 118.304C41.8222 118.613 42.0942 118.837 42.3395 118.976C42.5848 119.104 42.8088 119.168 43.0115 119.168C43.0328 119.168 43.0702 119.168 43.1235 119.168C43.1768 119.157 43.2195 119.152 43.2515 119.152L43.2675 120.112C43.2248 120.123 43.1715 120.133 43.1075 120.144C43.0542 120.155 42.9902 120.16 42.9155 120.16ZM37.7635 114.608C38.3395 114.608 38.8302 114.56 39.2355 114.464C39.6515 114.368 39.9875 114.219 40.2435 114.016C40.5102 113.813 40.7022 113.547 40.8195 113.216C40.9475 112.875 41.0115 112.464 41.0115 111.984C41.0115 111.365 40.9102 110.875 40.7075 110.512C40.5048 110.139 40.1582 109.872 39.6675 109.712C39.1768 109.552 38.5048 109.472 37.6515 109.472C37.4168 109.472 37.2088 109.472 37.0275 109.472C36.8568 109.472 36.6915 109.477 36.5315 109.488C36.3715 109.499 36.2008 109.509 36.0195 109.52C35.8382 109.52 35.6302 109.531 35.3955 109.552V114.56C35.6195 114.571 35.8275 114.581 36.0195 114.592C36.2222 114.592 36.4195 114.597 36.6115 114.608C36.8142 114.608 37.0062 114.608 37.1875 114.608C37.3795 114.608 37.5715 114.608 37.7635 114.608ZM43.6928 120L47.5968 108.672H48.6688L52.5888 120H51.5008L50.4448 116.88H45.7888L44.7328 120H43.6928ZM46.0128 116.032H50.2208L48.1088 109.792L46.0128 116.032ZM53.9969 120V108.752H54.9409L61.3249 118.384V108.8H62.2529V120.016H61.2929L54.9249 110.432V120H53.9969ZM64.2051 114.608C64.2051 113.189 64.3918 112.043 64.7651 111.168C65.1385 110.293 65.6878 109.653 66.4131 109.248C67.1385 108.843 68.0291 108.64 69.0851 108.64C69.3838 108.64 69.6611 108.651 69.9171 108.672C70.1731 108.683 70.4185 108.704 70.6531 108.736C70.8878 108.757 71.1171 108.795 71.3411 108.848C71.5758 108.901 71.8105 108.96 72.0451 109.024L71.8371 109.856C71.5385 109.771 71.2451 109.707 70.9571 109.664C70.6691 109.611 70.3811 109.573 70.0931 109.552C69.8051 109.531 69.4958 109.52 69.1651 109.52C68.5251 109.52 67.9598 109.611 67.4691 109.792C66.9785 109.963 66.5678 110.245 66.2371 110.64C65.9065 111.035 65.6505 111.557 65.4691 112.208C65.2985 112.859 65.2131 113.653 65.2131 114.592C65.2131 115.467 65.2931 116.203 65.4531 116.8C65.6238 117.397 65.8691 117.883 66.1891 118.256C66.5198 118.619 66.9198 118.885 67.3891 119.056C67.8691 119.216 68.4131 119.296 69.0211 119.296C69.5438 119.296 70.0825 119.259 70.6371 119.184C71.2025 119.109 71.7091 119.003 72.1571 118.864L72.3491 119.696C72.1038 119.771 71.8478 119.84 71.5811 119.904C71.3145 119.957 71.0318 120 70.7331 120.032C70.4451 120.075 70.1465 120.107 69.8371 120.128C69.5278 120.149 69.2131 120.16 68.8931 120.16C68.1358 120.16 67.4691 120.064 66.8931 119.872C66.3171 119.669 65.8265 119.355 65.4211 118.928C65.0265 118.491 64.7225 117.92 64.5091 117.216C64.3065 116.501 64.2051 115.632 64.2051 114.608ZM74.0281 120V108.8H80.8601V109.712H75.0521V113.68H80.5081V114.576H75.0521V119.088H81.1481V120H74.0281ZM85.9115 120L89.8155 108.672H90.8875L94.8075 120H93.7195L92.6635 116.88H88.0075L86.9515 120H85.9115ZM88.2315 116.032H92.4395L90.3275 109.792L88.2315 116.032ZM95.3614 114.592C95.3614 113.259 95.5374 112.155 95.8894 111.28C96.252 110.395 96.78 109.733 97.4734 109.296C98.1774 108.859 99.0467 108.64 100.081 108.64C100.369 108.64 100.652 108.651 100.929 108.672C101.217 108.693 101.489 108.725 101.745 108.768C102.012 108.8 102.268 108.848 102.513 108.912C102.769 108.965 103.015 109.029 103.249 109.104L103.057 109.92C102.577 109.781 102.092 109.68 101.601 109.616C101.121 109.552 100.636 109.52 100.145 109.52C99.324 109.52 98.6307 109.707 98.0654 110.08C97.5107 110.443 97.0894 111.003 96.8014 111.76C96.5134 112.507 96.3694 113.456 96.3694 114.608C96.3694 115.685 96.5027 116.571 96.7694 117.264C97.0467 117.957 97.452 118.475 97.9854 118.816C98.5187 119.157 99.1747 119.328 99.9534 119.328C100.508 119.328 101.015 119.301 101.473 119.248C101.932 119.184 102.343 119.088 102.705 118.96V115.28H99.8254V114.464H103.633V119.552C103.175 119.755 102.615 119.904 101.953 120C101.303 120.107 100.604 120.16 99.8574 120.16C98.8654 120.16 98.0334 119.957 97.3614 119.552C96.7 119.147 96.1987 118.533 95.8574 117.712C95.5267 116.88 95.3614 115.84 95.3614 114.592ZM105.778 120V108.8H112.61V109.712H106.802V113.68H112.258V114.576H106.802V119.088H112.898V120H105.778ZM114.528 120V108.752H115.472L121.856 118.384V108.8H122.784V120.016H121.824L115.456 110.432V120H114.528ZM132.08 109.696H128.592V120H127.6V109.696H124.112V108.8H132.08V109.696ZM136.318 120L140.222 108.672H141.294L145.214 120H144.126L143.07 116.88H138.414L137.358 120H136.318ZM138.638 116.032H142.846L140.734 109.792L138.638 116.032ZM153.119 109.12L152.895 109.92C152.714 109.856 152.506 109.797 152.271 109.744C152.037 109.691 151.791 109.643 151.535 109.6C151.279 109.557 151.018 109.525 150.751 109.504C150.495 109.483 150.255 109.472 150.031 109.472C149.157 109.472 148.458 109.653 147.935 110.016C147.413 110.379 147.151 110.869 147.151 111.488C147.151 111.765 147.205 112.016 147.311 112.24C147.418 112.453 147.589 112.661 147.823 112.864C148.069 113.056 148.394 113.248 148.799 113.44C149.205 113.621 149.701 113.813 150.287 114.016C150.917 114.229 151.445 114.448 151.871 114.672C152.309 114.885 152.661 115.115 152.927 115.36C153.194 115.605 153.386 115.883 153.503 116.192C153.621 116.501 153.679 116.848 153.679 117.232C153.679 117.851 153.514 118.379 153.183 118.816C152.863 119.253 152.394 119.589 151.775 119.824C151.167 120.048 150.426 120.16 149.551 120.16C149.274 120.16 148.959 120.144 148.607 120.112C148.266 120.08 147.919 120.037 147.567 119.984C147.226 119.92 146.895 119.851 146.575 119.776C146.266 119.701 145.999 119.621 145.775 119.536L146.015 118.72C146.239 118.805 146.501 118.885 146.799 118.96C147.109 119.035 147.423 119.099 147.743 119.152C148.074 119.205 148.399 119.248 148.719 119.28C149.039 119.312 149.333 119.328 149.599 119.328C150.25 119.328 150.799 119.253 151.247 119.104C151.706 118.944 152.053 118.715 152.287 118.416C152.533 118.107 152.655 117.739 152.655 117.312C152.655 117.024 152.591 116.768 152.463 116.544C152.346 116.309 152.159 116.096 151.903 115.904C151.647 115.712 151.311 115.525 150.895 115.344C150.479 115.152 149.973 114.955 149.375 114.752C148.778 114.539 148.271 114.325 147.855 114.112C147.439 113.888 147.103 113.653 146.847 113.408C146.591 113.152 146.405 112.875 146.287 112.576C146.17 112.267 146.111 111.92 146.111 111.536C146.111 111.109 146.197 110.72 146.367 110.368C146.549 110.005 146.805 109.696 147.135 109.44C147.477 109.184 147.887 108.987 148.367 108.848C148.858 108.709 149.413 108.64 150.031 108.64C150.373 108.64 150.735 108.661 151.119 108.704C151.514 108.747 151.887 108.805 152.239 108.88C152.591 108.955 152.885 109.035 153.119 109.12ZM161.776 109.12L161.552 109.92C161.37 109.856 161.162 109.797 160.928 109.744C160.693 109.691 160.448 109.643 160.192 109.6C159.936 109.557 159.674 109.525 159.408 109.504C159.152 109.483 158.912 109.472 158.688 109.472C157.813 109.472 157.114 109.653 156.592 110.016C156.069 110.379 155.808 110.869 155.808 111.488C155.808 111.765 155.861 112.016 155.968 112.24C156.074 112.453 156.245 112.661 156.48 112.864C156.725 113.056 157.05 113.248 157.456 113.44C157.861 113.621 158.357 113.813 158.944 114.016C159.573 114.229 160.101 114.448 160.528 114.672C160.965 114.885 161.317 115.115 161.584 115.36C161.85 115.605 162.042 115.883 162.16 116.192C162.277 116.501 162.336 116.848 162.336 117.232C162.336 117.851 162.17 118.379 161.84 118.816C161.52 119.253 161.05 119.589 160.432 119.824C159.824 120.048 159.082 120.16 158.208 120.16C157.93 120.16 157.616 120.144 157.264 120.112C156.922 120.08 156.576 120.037 156.224 119.984C155.882 119.92 155.552 119.851 155.232 119.776C154.922 119.701 154.656 119.621 154.432 119.536L154.672 118.72C154.896 118.805 155.157 118.885 155.456 118.96C155.765 119.035 156.08 119.099 156.4 119.152C156.73 119.205 157.056 119.248 157.376 119.28C157.696 119.312 157.989 119.328 158.256 119.328C158.906 119.328 159.456 119.253 159.904 119.104C160.362 118.944 160.709 118.715 160.944 118.416C161.189 118.107 161.312 117.739 161.312 117.312C161.312 117.024 161.248 116.768 161.12 116.544C161.002 116.309 160.816 116.096 160.56 115.904C160.304 115.712 159.968 115.525 159.552 115.344C159.136 115.152 158.629 114.955 158.032 114.752C157.434 114.539 156.928 114.325 156.512 114.112C156.096 113.888 155.76 113.653 155.504 113.408C155.248 113.152 155.061 112.875 154.944 112.576C154.826 112.267 154.768 111.92 154.768 111.536C154.768 111.109 154.853 110.72 155.024 110.368C155.205 110.005 155.461 109.696 155.792 109.44C156.133 109.184 156.544 108.987 157.024 108.848C157.514 108.709 158.069 108.64 158.688 108.64C159.029 108.64 159.392 108.661 159.776 108.704C160.17 108.747 160.544 108.805 160.896 108.88C161.248 108.955 161.541 109.035 161.776 109.12ZM164.106 120V108.8H165.098V120H164.106ZM174.057 109.12L173.833 109.92C173.652 109.856 173.444 109.797 173.209 109.744C172.974 109.691 172.729 109.643 172.473 109.6C172.217 109.557 171.956 109.525 171.689 109.504C171.433 109.483 171.193 109.472 170.969 109.472C170.094 109.472 169.396 109.653 168.873 110.016C168.35 110.379 168.089 110.869 168.089 111.488C168.089 111.765 168.142 112.016 168.249 112.24C168.356 112.453 168.526 112.661 168.761 112.864C169.006 113.056 169.332 113.248 169.737 113.44C170.142 113.621 170.638 113.813 171.225 114.016C171.854 114.229 172.382 114.448 172.809 114.672C173.246 114.885 173.598 115.115 173.865 115.36C174.132 115.605 174.324 115.883 174.441 116.192C174.558 116.501 174.617 116.848 174.617 117.232C174.617 117.851 174.452 118.379 174.121 118.816C173.801 119.253 173.332 119.589 172.713 119.824C172.105 120.048 171.364 120.16 170.489 120.16C170.212 120.16 169.897 120.144 169.545 120.112C169.204 120.08 168.857 120.037 168.505 119.984C168.164 119.92 167.833 119.851 167.513 119.776C167.204 119.701 166.937 119.621 166.713 119.536L166.953 118.72C167.177 118.805 167.438 118.885 167.737 118.96C168.046 119.035 168.361 119.099 168.681 119.152C169.012 119.205 169.337 119.248 169.657 119.28C169.977 119.312 170.27 119.328 170.537 119.328C171.188 119.328 171.737 119.253 172.185 119.104C172.644 118.944 172.99 118.715 173.225 118.416C173.47 118.107 173.593 117.739 173.593 117.312C173.593 117.024 173.529 116.768 173.401 116.544C173.284 116.309 173.097 116.096 172.841 115.904C172.585 115.712 172.249 115.525 171.833 115.344C171.417 115.152 170.91 114.955 170.313 114.752C169.716 114.539 169.209 114.325 168.793 114.112C168.377 113.888 168.041 113.653 167.785 113.408C167.529 113.152 167.342 112.875 167.225 112.576C167.108 112.267 167.049 111.92 167.049 111.536C167.049 111.109 167.134 110.72 167.305 110.368C167.486 110.005 167.742 109.696 168.073 109.44C168.414 109.184 168.825 108.987 169.305 108.848C169.796 108.709 170.35 108.64 170.969 108.64C171.31 108.64 171.673 108.661 172.057 108.704C172.452 108.747 172.825 108.805 173.177 108.88C173.529 108.955 173.822 109.035 174.057 109.12ZM182.955 109.696H179.467V120H178.475V109.696H174.987V108.8H182.955V109.696ZM182.255 120L186.159 108.672H187.231L191.151 120H190.063L189.007 116.88H184.351L183.295 120H182.255ZM184.575 116.032H188.783L186.671 109.792L184.575 116.032ZM192.559 120V108.752H193.503L199.887 118.384V108.8H200.815V120.016H199.855L193.487 110.432V120H192.559ZM210.112 109.696H206.624V120H205.632V109.696H202.144V108.8H210.112V109.696Z" fill="#F8E8EE"/>
<defs>
<clipPath id="clip0_411_70">
<rect x="17.457" y="8.45714" width="175.486" height="57.0857" fill="white"/>
</clipPath>
</defs>
</svg>
